{
    "asset" : {
        "generator" : "Khronos glTF Blender I/O v1.4.40",
        "version" : "2.0"
    },
    "scene" : 0,
    "scenes" : [
        {
            "name" : "Scene",
            "nodes" : [
                0,
                1,
                2,
                3,
                4
            ]
        }
    ],
    "nodes" : [
        {
            "mesh" : 0,
            "name" : "stairs",
            "translation" : [
                0,
                2,
                0
            ]
        },
        {
            "name" : "Empty.000",
            "rotation" : [
                0,
                0,
                -0.38620424270629883,
                0.9224132895469666
            ],
            "scale" : [
                2.724949598312378,
                0.24939152598381042,
                1.9943678379058838
            ],
            "translation" : [
                0.18490290641784668,
                1.8726788759231567,
                0
            ]
        },
        {
            "name" : "Empty.001",
            "scale" : [
                -0.2135278433561325,
                1.934812307357788,
                1.9943678379058838
            ],
            "translation" : [
                -1.7743432521820068,
                2.026690721511841,
                0
            ]
        },
        {
            "name" : "Empty.002",
            "rotation" : [
                0,
                0,
                -0.38620424270629883,
                0.9224132895469666
            ],
            "scale" : [
                2.724949598312378,
                0.24939152598381042,
                0.22436785697937012
            ],
            "translation" : [
                0.18490290641784668,
                2.706763744354248,
                1.764891505241394
            ]
        },
        {
            "name" : "Empty.003",
            "rotation" : [
                0,
                0,
                -0.38620424270629883,
                0.9224132895469666
            ],
            "scale" : [
                2.724949598312378,
                0.24939152598381042,
                0.22436785697937012
            ],
            "translation" : [
                0.18490290641784668,
                2.706763744354248,
                -1.8050590753555298
            ]
        }
    ],
    "materials" : [
        {
            "doubleSided" : true,
            "name" : "Material.001",
            "pbrMetallicRoughness" : {
                "baseColorFactor" : [
                    0.07657980173826218,
                    0.06886256486177444,
                    0.03658794239163399,
                    1
                ],
                "metallicFactor" : 0,
                "roughnessFactor" : 0.5
            }
        }
    ],
    "meshes" : [
        {
            "name" : "Cube.001",
            "primitives" : [
                {
                    "attributes" : {
                        "POSITION" : 0,
                        "NORMAL" : 1,
                        "TEXCOORD_0" : 2
                    },
                    "indices" : 3,
                    "material" : 0
                }
            ]
        }
    ],
    "accessors" : [
        {
            "bufferView" : 0,
            "componentType" : 5126,
            "count" : 937,
            "max" : [
                2.2239341735839844,
                2.7633631229400635,
                2
            ],
            "min" : [
                -2,
                -1.8722515106201172,
                -2
            ],
            "type" : "VEC3"
        },
        {
            "bufferView" : 1,
            "componentType" : 5126,
            "count" : 937,
            "type" : "VEC3"
        },
        {
            "bufferView" : 2,
            "componentType" : 5126,
            "count" : 937,
            "type" : "VEC2"
        },
        {
            "bufferView" : 3,
            "componentType" : 5123,
            "count" : 1722,
            "type" : "SCALAR"
        }
    ],
    "bufferViews" : [
        {
            "buffer" : 0,
            "byteLength" : 11244,
            "byteOffset" : 0
        },
        {
            "buffer" : 0,
            "byteLength" : 11244,
            "byteOffset" : 11244
        },
        {
            "buffer" : 0,
            "byteLength" : 7496,
            "byteOffset" : 22488
        },
        {
            "buffer" : 0,
            "byteLength" : 3444,
            "byteOffset" : 29984
        }
    ],
    "buffers" : [
        {
            "byteLength" : 33428,
            "uri" : "data:application/octet-stream;base64,"
        }
    ]
}
