{
    "asset" : {
        "generator" : "Khronos glTF Blender I/O v1.4.40",
        "version" : "2.0"
    },
    "scene" : 0,
    "scenes" : [
        {
            "name" : "Scene",
            "nodes" : [
                1,
                2
            ]
        }
    ],
    "nodes" : [
        {
            "mesh" : 0,
            "name" : "Tetra"
        },
        {
            "children" : [
                0
            ],
            "mesh" : 1,
            "name" : "stone"
        },
        {
            "mesh" : 2,
            "name" : "stone.001"
        }
    ],
    "meshes" : [
        {
            "name" : "Plane",
            "primitives" : [
                {
                    "attributes" : {
                        "POSITION" : 0,
                        "NORMAL" : 1,
                        "TEXCOORD_0" : 2
                    },
                    "indices" : 3
                }
            ]
        },
        {
            "name" : "Plane.001",
            "primitives" : [
                {
                    "attributes" : {
                        "POSITION" : 4,
                        "NORMAL" : 5,
                        "TEXCOORD_0" : 6
                    },
                    "indices" : 7
                }
            ]
        },
        {
            "name" : "Plane.006",
            "primitives" : [
                {
                    "attributes" : {
                        "POSITION" : 8,
                        "NORMAL" : 9,
                        "TEXCOORD_0" : 10
                    },
                    "indices" : 7
                }
            ]
        }
    ],
    "accessors" : [
        {
            "bufferView" : 0,
            "componentType" : 5126,
            "count" : 12,
            "max" : [
                1.0222221612930298,
                1.850142002105713,
                0.0037037134170532227
            ],
            "min" : [
                -0.933333158493042,
                -0.0013124048709869385,
                -2.3888888359069824
            ],
            "type" : "VEC3"
        },
        {
            "bufferView" : 1,
            "componentType" : 5126,
            "count" : 12,
            "type" : "VEC3"
        },
        {
            "bufferView" : 2,
            "componentType" : 5126,
            "count" : 12,
            "type" : "VEC2"
        },
        {
            "bufferView" : 3,
            "componentType" : 5123,
            "count" : 12,
            "type" : "SCALAR"
        },
        {
            "bufferView" : 4,
            "componentType" : 5126,
            "count" : 40,
            "max" : [
                1.0222221612930298,
                1.7986518144607544,
                0.0037037134170532227
            ],
            "min" : [
                -0.933333158493042,
                -0.0013124048709869385,
                -2.3888888359069824
            ],
            "type" : "VEC3"
        },
        {
            "bufferView" : 5,
            "componentType" : 5126,
            "count" : 40,
            "type" : "VEC3"
        },
        {
            "bufferView" : 6,
            "componentType" : 5126,
            "count" : 40,
            "type" : "VEC2"
        },
        {
            "bufferView" : 7,
            "componentType" : 5123,
            "count" : 60,
            "type" : "SCALAR"
        },
        {
            "bufferView" : 8,
            "componentType" : 5126,
            "count" : 40,
            "max" : [
                1.0222221612930298,
                1.7986518144607544,
                0.0037037134170532227
            ],
            "min" : [
                -0.933333158493042,
                -0.0013124048709869385,
                -2.3888888359069824
            ],
            "type" : "VEC3"
        },
        {
            "bufferView" : 9,
            "componentType" : 5126,
            "count" : 40,
            "type" : "VEC3"
        },
        {
            "bufferView" : 10,
            "componentType" : 5126,
            "count" : 40,
            "type" : "VEC2"
        }
    ],
    "bufferViews" : [
        {
            "buffer" : 0,
            "byteLength" : 144,
            "byteOffset" : 0
        },
        {
            "buffer" : 0,
            "byteLength" : 144,
            "byteOffset" : 144
        },
        {
            "buffer" : 0,
            "byteLength" : 96,
            "byteOffset" : 288
        },
        {
            "buffer" : 0,
            "byteLength" : 24,
            "byteOffset" : 384
        },
        {
            "buffer" : 0,
            "byteLength" : 480,
            "byteOffset" : 408
        },
        {
            "buffer" : 0,
            "byteLength" : 480,
            "byteOffset" : 888
        },
        {
            "buffer" : 0,
            "byteLength" : 320,
            "byteOffset" : 1368
        },
        {
            "buffer" : 0,
            "byteLength" : 120,
            "byteOffset" : 1688
        },
        {
            "buffer" : 0,
            "byteLength" : 480,
            "byteOffset" : 1808
        },
        {
            "buffer" : 0,
            "byteLength" : 480,
            "byteOffset" : 2288
        },
        {
            "buffer" : 0,
            "byteLength" : 320,
            "byteOffset" : 2768
        }
    ],
    "buffers" : [
        {
            "byteLength" : 3088,
            "uri" : "data:application/octet-stream;base64,"
        }
    ]
}
