{
    "asset" : {
        "generator" : "Khronos glTF Blender I/O v1.7.33",
        "version" : "2.0"
    },
    "scene" : 0,
    "scenes" : [
        {
            "name" : "Scene",
            "nodes" : [
                1
            ]
        }
    ],
    "nodes" : [
        {
            "mesh" : 0,
            "name" : "rockcolision.002"
        },
        {
            "children" : [
                0
            ],
            "mesh" : 1,
            "name" : "rockcolision.003"
        }
    ],
    "meshes" : [
        {
            "name" : "Cylinder.036",
            "primitives" : [
                {
                    "attributes" : {
                        "POSITION" : 0,
                        "NORMAL" : 1,
                        "TEXCOORD_0" : 2
                    },
                    "indices" : 3
                }
            ]
        },
        {
            "name" : "Cylinder.037",
            "primitives" : [
                {
                    "attributes" : {
                        "POSITION" : 4,
                        "NORMAL" : 5,
                        "TEXCOORD_0" : 6
                    },
                    "indices" : 3
                }
            ]
        }
    ],
    "accessors" : [
        {
            "bufferView" : 0,
            "componentType" : 5126,
            "count" : 84,
            "max" : [
                2.0400474071502686,
                4.866335868835449,
                1.6666572093963623
            ],
            "min" : [
                -1.531753420829773,
                -4.101456165313721,
                -2.3539927005767822
            ],
            "type" : "VEC3"
        },
        {
            "bufferView" : 1,
            "componentType" : 5126,
            "count" : 84,
            "type" : "VEC3"
        },
        {
            "bufferView" : 2,
            "componentType" : 5126,
            "count" : 84,
            "type" : "VEC2"
        },
        {
            "bufferView" : 3,
            "componentType" : 5123,
            "count" : 84,
            "type" : "SCALAR"
        },
        {
            "bufferView" : 4,
            "componentType" : 5126,
            "count" : 84,
            "max" : [
                2.0400474071502686,
                4.866335868835449,
                1.6666572093963623
            ],
            "min" : [
                -1.531753420829773,
                -4.101456165313721,
                -2.3539927005767822
            ],
            "type" : "VEC3"
        },
        {
            "bufferView" : 5,
            "componentType" : 5126,
            "count" : 84,
            "type" : "VEC3"
        },
        {
            "bufferView" : 6,
            "componentType" : 5126,
            "count" : 84,
            "type" : "VEC2"
        }
    ],
    "bufferViews" : [
        {
            "buffer" : 0,
            "byteLength" : 1008,
            "byteOffset" : 0
        },
        {
            "buffer" : 0,
            "byteLength" : 1008,
            "byteOffset" : 1008
        },
        {
            "buffer" : 0,
            "byteLength" : 672,
            "byteOffset" : 2016
        },
        {
            "buffer" : 0,
            "byteLength" : 168,
            "byteOffset" : 2688
        },
        {
            "buffer" : 0,
            "byteLength" : 1008,
            "byteOffset" : 2856
        },
        {
            "buffer" : 0,
            "byteLength" : 1008,
            "byteOffset" : 3864
        },
        {
            "buffer" : 0,
            "byteLength" : 672,
            "byteOffset" : 4872
        }
    ],
    "buffers" : [
        {
            "byteLength" : 5544,
            "uri" : "data:application/octet-stream;base64,"
        }
    ]
}
